<?xml version="1.0" encoding="utf-8"?>
<!-- Generator: Adobe Illustrator 24.0.0, SVG Export Plug-In . SVG Version: 6.00 Build 0)  -->
<svg version="1.1" xmlns="http://www.w3.org/2000/svg" xmlns:xlink="http://www.w3.org/1999/xlink" x="0px" y="0px"
	 viewBox="0 0 256 256" enable-background="new 0 0 256 256" xml:space="preserve">
<g id="Layer_2" display="none">
	<rect x="-1436" y="-5160" display="inline" fill="#FFFFFF" width="1786" height="5896"/>
</g>
<g id="Layer_1">
	<g>
		<path fill="#878787" d="M127.296,168.255l-4.85,6.47l-5.88,7.83c-2.88,3.84-9,1.8-9-3v-31.03L127.296,168.255z"/>
		<polygon fill="#4C4944" points="127.296,168.255 122.446,174.725 107.566,159.845 107.566,148.525 		"/>
		<path fill="#72C2E9" d="M51.267,82.191c-3.418,1.266-4.376,5.646-1.799,8.224l58.098,58.111
			c28.693,28.693,58.228,58.215,58.111,58.098c2.578,2.577,6.957,1.619,8.224-1.799l68.381-184.59
			c1.485-4.008-2.418-7.91-6.426-6.426L51.267,82.191z"/>
		<path fill="#C5E5FE" d="M164.276,190.376L75.717,101.82c-0.977-0.977-0.977-2.56,0-3.535c0.977-0.977,2.559-0.977,3.535,0
			l85.801,85.799l47.544-128.339c0.48-1.296,1.923-1.952,3.213-1.477c1.295,0.48,1.956,1.919,1.477,3.213l-48.898,131.995
			C167.758,191.177,165.566,191.668,164.276,190.376z M68.646,94.748l-2.931-2.933c-0.977-0.977-0.977-2.56,0-3.536
			c0.977-0.975,2.56-0.976,3.536,0.001l2.931,2.933c0.977,0.977,0.977,2.56,0,3.535C71.203,95.726,69.62,95.722,68.646,94.748z"/>
		<g>
			<path d="M221.686,37.936c0.979-0.971,0.979-2.561,0-3.54c-0.94-0.94-2.59-0.94-3.53,0c-0.991,1.012-0.955,2.583,0,3.54
				C219.118,38.898,220.701,38.918,221.686,37.936z"/>
			<path d="M234.976,11.465l-184.58,68.38c-5.11,1.896-6.576,8.465-2.7,12.341l57.37,57.38v29.989
				c-0.033,7.188,9.223,10.244,13.5,4.5l9.001-11.996l36.349,36.336c3.849,3.876,10.441,2.378,12.33-2.7l5.431-14.66
				c0.47-1.29-0.19-2.73-1.48-3.21c-1.27-0.47-2.75,0.22-3.21,1.479l-5.43,14.65c-0.645,1.725-2.834,2.174-4.11,0.9
				c-47.485-47.474-34.031-34.021-56.339-56.332L214.616,45.005c0.954-0.955,0.995-2.533,0-3.53c-0.939-0.949-2.59-0.949-3.53,0
				L107.567,144.983L51.236,88.646c-1.321-1.321-0.783-3.481,0.9-4.11L236.202,16.35l-10.976,10.976c-0.971,0.979-0.971,2.56,0,3.54
				c0.956,0.956,2.537,0.992,3.529,0l10.988-10.98l-55.817,150.66c-0.471,1.29,0.189,2.73,1.479,3.21
				c1.271,0.47,2.75-0.22,3.22-1.47c0-0.01,0-0.01,0-0.021l56-151.159C246.861,15.033,240.912,9.233,234.976,11.465z
				 M110.066,154.564l13.928,13.923l-9.428,12.567c-1.538,1.98-4.5,0.813-4.5-1.5V154.564z"/>
			<path d="M183.666,178.445c-1.26-0.471-2.739,0.22-3.21,1.479c-0.479,1.29,0.19,2.73,1.48,3.21
				c1.401,0.504,2.763-0.266,3.21-1.479C185.625,180.365,184.965,178.925,183.666,178.445z"/>
			<path d="M57.445,202.182l20.592-20.592c0.977-0.977,0.977-2.559,0-3.535s-2.559-0.977-3.535,0L53.91,198.646
				c-0.977,0.977-0.977,2.559,0,3.535S56.468,203.158,57.445,202.182z"/>
			<path d="M66.178,165.509c-0.977-0.977-2.559-0.977-3.535,0l-28.145,28.146c-4.25,4.247-11.163,4.248-15.411,0
				c-4.248-4.249-4.248-11.162,0-15.411c4.26-4.26,11.151-4.26,15.411,0c0.977,0.977,2.559,0.977,3.535,0s0.977-2.559,0-3.535
				c-6.214-6.214-16.269-6.215-22.481,0c-6.198,6.197-6.198,16.283,0,22.481c6.195,6.197,16.283,6.198,22.481,0l28.145-28.146
				C67.155,168.067,67.155,166.485,66.178,165.509z"/>
			<path d="M87.047,189.913l-28.146,28.145c-6.198,6.198-6.198,16.284,0,22.481c9.919,9.919,27.139,2.963,27.139-11.24
				c0-4.246-1.654-8.238-4.657-11.241c-0.977-0.977-2.559-0.977-3.535,0s-0.977,2.559,0,3.535c2.059,2.059,3.192,4.795,3.192,7.706
				c0,9.63-11.729,14.575-18.604,7.705c-4.248-4.249-4.248-11.162,0-15.411l28.146-28.145c0.977-0.976,0.977-2.559,0-3.535
				S88.024,188.937,87.047,189.913z"/>
		</g>
	</g>
</g>
</svg>
